# xmcd CD database file
#
# Track frame offsets:
#	150
#	17440
#	46550
#	56505
#	82167
#	138990
#	157125
#	174915
#	207787
#	242887
#	259052
#
# Disc length: 4430 seconds
#
# Revision: 0
# Processed by: cddbd v1.5.1PL0 Copyright (c) Steve Scherf et al.
# Submitted via: CDex 1.51
#
DISCID=8a114c0b
DTITLE=Either/Orchestra - Across the Omniverse [CD1 of 2)
DYEAR=1996
DGENRE=Jazz
TTITLE0=The Jeep Is Jumpin'
TTITLE1=Theme from the E-Men
TTITLE2=No Negative Energy (Intro)
TTITLE3=No Negative Energy
TTITLE4=Doghouse Interior
TTITLE5=In a Sentimental Mood
TTITLE6=Big Butt
TTITLE7=The Look of Love
TTITLE8=Night of the Living Blues
TTITLE9=Swamiji's Mood
TTITLE10=Born in a Suitcase
EXTD=YEAR: 1996
EXTT0=
EXTT1=
EXTT2=
EXTT3=
EXTT4=
EXTT5=
EXTT6=
EXTT7=
EXTT8=
EXTT9=
EXTT10=
PLAYORDER=
